<svg xmlns="http://www.w3.org/2000/svg" xmlns:xlink="http://www.w3.org/1999/xlink" style="margin:auto;background:#efefef;display:block;z-index:1;position:relative" width="100%" height="100%" preserveAspectRatio="xMidYMid" viewBox="0 0 1846 943">
    <g transform="translate(923,471.5) scale(1,1) translate(-923,-471.5)"><g transform="translate(1797.6894560429519,-349.8880724038336) scale(100)" opacity="0.4">
        <path d="M11.27906 0 C11.27906 5.1595699999999995 12.642015658511502 5.345281788498153 8.993648723504828 8.993648723504828 S5.15957 11.27906 6.906432363195473e-16 11.27906 S-5.345281788498153 12.642015658511502 -8.993648723504828 8.993648723504828 S-11.27906 5.159570000000001 -11.27906 1.3812864726390946e-15 S-12.642015658511504 -5.345281788498152 -8.99364872350483 -8.993648723504828 S-5.159570000000001 -11.279059999999998 -2.0719297089586415e-15 -11.27906 S5.34528178849815 -12.642015658511504 8.993648723504826 -8.99364872350483 S11.279059999999998 -5.159570000000002 11.27906 -2.762572945278189e-15" fill="#5bc2eb" stroke-width="0">
            <animateTransform attributeName="transform" type="rotate" dur="100s" repeatCount="indefinite" values="0;90"></animateTransform>
        </path>
    </g><g transform="translate(1972.6273472515422,-514.1656868846003) scale(100)" opacity="0.4">
        <path d="M13.534872 0 C13.534872 6.191484 15.170418790213805 6.4143381461977835 10.792378468205795 10.792378468205793 S6.191484000000001 13.534872 8.287718835834568e-16 13.534872 S-6.4143381461977835 15.170418790213805 -10.792378468205793 10.792378468205795 S-13.534872 6.191484000000002 -13.534872 1.6575437671669136e-15 S-15.170418790213807 -6.414338146197783 -10.792378468205797 -10.792378468205793 S-6.191484000000003 -13.534871999999998 -2.48631565075037e-15 -13.534872 S6.414338146197781 -15.170418790213805 10.792378468205792 -10.792378468205797 S13.534871999999998 -6.1914840000000035 13.534872 -3.315087534333827e-15" fill="#60b8e2" stroke-width="0">
            <animateTransform attributeName="transform" type="rotate" dur="50s" repeatCount="indefinite" values="0;90"></animateTransform>
        </path>
    </g><g transform="translate(2392.478286152159,-908.4319616384403) scale(100)" opacity="0.4">
        <path d="M18.9488208 0 C18.9488208 8.668077599999998 21.23858630629932 8.980073404676894 15.10932985548811 15.109329855488108 S8.6680776 18.9488208 1.1602806370168395e-15 18.9488208 S-8.980073404676894 21.23858630629932 -15.109329855488108 15.10932985548811 S-18.9488208 8.6680776 -18.9488208 2.320561274033679e-15 S-21.238586306299325 -8.980073404676894 -15.109329855488111 -15.109329855488108 S-8.668077600000002 -18.9488208 -3.4808419110505182e-15 -18.9488208 S8.98007340467689 -21.23858630629932 15.109329855488104 -15.109329855488111 S18.948820799999996 -8.668077600000004 18.9488208 -4.641122548067358e-15" fill="#63afd9" stroke-width="0">
            <animateTransform attributeName="transform" type="rotate" dur="33.333333333333336s" repeatCount="indefinite" values="0;90"></animateTransform>
        </path>
    </g><g transform="translate(3274.1652578434546,-1736.3911386215045) scale(100)" opacity="0.4">
        <path d="M30.318113280000006 0 C30.318113280000006 13.868924160000002 33.98173809007893 14.368117447483034 24.174927768780982 24.17492776878098 S13.868924160000004 30.318113280000006 1.8564490192269433e-15 30.318113280000006 S-14.368117447483034 33.98173809007893 -24.17492776878098 24.174927768780982 S-30.318113280000006 13.868924160000006 -30.318113280000006 3.712898038453887e-15 S-33.98173809007893 -14.368117447483032 -24.174927768780986 -24.17492776878098 S-13.868924160000008 -30.318113280000002 -5.5693470576808296e-15 -30.318113280000006 S14.368117447483028 -33.98173809007893 24.174927768780975 -24.174927768780986 S30.318113280000002 -13.86892416000001 30.318113280000006 -7.425796076907773e-15" fill="#66a5cf" stroke-width="0">
            <animateTransform attributeName="transform" type="rotate" dur="25s" repeatCount="indefinite" values="0;90"></animateTransform>
        </path>
    </g><g transform="translate(5155.097464118218,-3502.7040495187084) scale(100)" opacity="0.4">
        <path d="M54.572603904000005 0 C54.572603904000005 24.964063488 61.16712856214206 25.862611405469462 43.51486998380577 43.51486998380576 S24.964063488000004 54.572603904000005 3.341608234608498e-15 54.572603904000005 S-25.862611405469462 61.16712856214206 -43.51486998380576 43.51486998380577 S-54.572603904000005 24.964063488000008 -54.572603904000005 6.683216469216996e-15 S-61.16712856214207 -25.86261140546946 -43.514869983805774 -43.51486998380576 S-24.96406348800001 -54.572603904 -1.0024824703825493e-14 -54.572603904000005 S25.86261140546945 -61.16712856214207 43.51486998380575 -43.514869983805774 S54.572603904 -24.964063488000015 54.572603904000005 -1.3366432938433992e-14" fill="#689cc5" stroke-width="0">
            <animateTransform attributeName="transform" type="rotate" dur="20s" repeatCount="indefinite" values="0;90"></animateTransform>
        </path>
    </g></g>
</svg>